<svg width="350" height="250" viewBox="0 0 350 250" fill="none" xmlns="http://www.w3.org/2000/svg">
<rect width="350" height="250" rx="12" fill="#D1D5DB"/>
<path d="M254.302 45.6981C251.974 43.3702 248.65 42.3741 245.366 43.0247C223.175 47.477 203.008 58.2628 186.985 74.253C183.488 77.7501 180.235 81.5113 177.226 85.4453L124.255 63.6302C120.382 62.0545 116 62.9491 113.063 65.8564L111.456 67.4626C109.505 69.4143 108.448 71.9863 108.448 74.7513C108.448 77.4858 109.505 80.0578 111.456 82.0095L116.285 86.8382C115.634 87.5193 115.289 88.3834 115.289 89.2677C115.289 90.1216 115.634 91.0162 116.285 91.6973C116.966 92.3479 117.861 92.6935 118.715 92.6935C119.609 92.6935 120.463 92.3479 121.144 91.6973L133.231 103.784C131.899 105.116 131.899 107.281 133.231 108.613C133.912 109.294 134.806 109.639 135.66 109.639C136.555 109.639 137.409 109.294 138.09 108.613L152.098 122.621L131.554 153.443C130.872 154.47 129.632 155.09 128.402 154.948L114.191 153.646C113.195 153.545 112.168 153.921 111.457 154.643L99.3699 166.76C98.4448 167.654 98.1398 168.955 98.516 170.145C98.8616 171.344 99.8477 172.269 101.118 172.503L123.066 176.925L127.488 198.872C127.732 200.143 128.657 201.129 129.846 201.475C130.151 201.577 130.497 201.648 130.842 201.648C131.737 201.648 132.591 201.302 133.241 200.621L145.358 188.534C146.08 187.813 146.456 186.826 146.355 185.8L145.053 171.588C144.952 170.358 145.531 169.118 146.558 168.437L177.38 147.893L191.388 161.901C190.016 163.233 190.016 165.398 191.388 166.76C192.039 167.411 192.933 167.756 193.787 167.756C194.682 167.756 195.536 167.411 196.217 166.76L206.006 176.549C205.874 175.35 205.833 174.12 205.833 172.92C205.833 159.431 211.862 147.344 221.346 139.191L214.565 122.754C218.499 119.745 222.271 116.492 225.758 112.995C241.748 96.974 252.533 76.8062 256.986 54.543C257.637 51.3205 256.64 48.0066 254.313 45.6788L254.302 45.6981ZM230.301 82.5085C229.518 84.938 227.973 86.5442 227.668 86.8594C227.017 87.5405 226.123 87.8556 225.239 87.8556C224.385 87.8556 223.49 87.5506 222.839 86.8594C221.508 85.5277 221.508 83.3623 222.839 82.0307C223.897 80.9023 224.791 79.1234 222.839 77.1716C220.888 75.2198 219.109 76.1144 217.94 77.2021C216.608 78.5033 214.443 78.4728 213.111 77.1309C211.81 75.7992 211.81 73.6339 213.142 72.3327C216.049 69.4253 222.352 66.9957 227.658 72.3327C230.565 75.24 231.531 78.8386 230.291 82.498L230.301 82.5085Z" fill="#515151" fill-opacity="0.63"/>
<path d="M230.097 132.877L229.172 133.772L229.142 133.802C227.739 134.555 226.407 135.378 225.106 136.303C224.282 136.273 223.459 135.927 222.849 135.276C221.517 133.945 221.517 131.779 222.849 130.448L225.248 128.018C226.62 126.686 228.776 126.686 230.107 128.018C231.439 129.35 231.439 131.546 230.107 132.877L230.097 132.877Z" fill="#515151" fill-opacity="0.63"/>
<path d="M167.141 78.1782C168.015 78.1782 168.889 77.8427 169.56 77.1718L171.979 74.7524C173.321 73.4105 173.321 71.2452 171.979 69.9135C170.638 68.5717 168.472 68.5717 167.141 69.9135L164.721 72.3329C163.379 73.6748 163.379 75.8401 164.721 77.1718C165.392 77.8427 166.266 78.1782 167.141 78.1782Z" fill="#515151" fill-opacity="0.63"/>
<path d="M142.928 68.4896C143.803 68.4896 144.677 68.1541 145.348 67.4832L147.767 65.0638C149.109 63.722 149.109 61.5566 147.767 60.225C146.425 58.8831 144.26 58.8831 142.928 60.225L140.509 62.6444C139.167 63.9862 139.167 66.1516 140.509 67.4832C141.18 68.1541 142.054 68.4896 142.928 68.4896Z" fill="#515151" fill-opacity="0.63"/>
<path d="M250.336 238C249.472 238 248.608 237.674 247.937 237.024C246.493 235.611 212.672 202.085 212.672 172.941C212.672 152.173 229.567 135.277 250.336 135.277C271.105 135.277 288 152.172 288 172.941C288 202.085 254.169 235.6 252.735 237.024C252.075 237.674 251.2 238 250.336 238ZM250.336 142.118C233.339 142.118 219.513 155.943 219.513 172.941C219.513 195 242.701 221.522 250.336 229.644C257.97 221.511 281.158 194.991 281.158 172.941C281.158 155.944 267.333 142.118 250.336 142.118Z" fill="#515151" fill-opacity="0.63"/>
<path d="M250.336 183.207C242.783 183.207 236.643 177.067 236.643 169.514C236.643 161.961 242.783 155.821 250.336 155.821C257.889 155.821 264.029 161.961 264.029 169.514C264.029 177.067 257.889 183.207 250.336 183.207ZM250.336 162.663C246.564 162.663 243.484 165.733 243.484 169.514C243.484 173.285 246.554 176.366 250.336 176.366C254.107 176.366 257.187 173.296 257.187 169.514C257.187 165.743 254.117 162.663 250.336 162.663Z" fill="#515151" fill-opacity="0.63"/>
<path d="M99.664 12.0003C78.8756 12.0003 62 28.8853 62 49.6643C62 78.8082 95.8307 112.324 97.2646 113.727C97.9152 114.377 98.8098 114.723 99.6637 114.723C100.518 114.723 101.412 114.377 102.063 113.727C102.642 113.147 108.396 107.465 115.146 98.8953C113.844 98.4176 112.614 97.6653 111.547 96.6691L111.303 96.4251C109.453 94.4429 108.426 91.9014 108.426 89.2686V88.6892L106.607 86.8391C103.354 83.6166 101.575 79.3065 101.575 74.7524C101.575 70.1678 103.354 65.8474 106.607 62.6353L108.213 61.0291C113.143 56.1294 120.442 54.696 126.805 57.2984L133.891 60.2057C134.369 59.3518 134.917 58.5284 135.639 57.8067L136.696 56.7495C137.103 54.3911 137.317 51.9921 137.317 49.664C137.317 28.8755 120.432 12 99.6525 12L99.664 12.0003ZM99.664 59.9411C92.101 59.9411 85.9712 53.8112 85.9712 46.2482C85.9712 38.6852 92.101 32.5554 99.664 32.5554C107.227 32.5554 113.357 38.6852 113.357 46.2482C113.357 53.8112 107.227 59.9411 99.664 59.9411Z" fill="#515151" fill-opacity="0.63"/>
<path d="M106.516 46.2472C106.516 55.3757 92.8232 55.3757 92.8232 46.2472C92.8232 37.1084 106.516 37.1084 106.516 46.2472Z" fill="#515151" fill-opacity="0.63"/>
</svg>
